Run_20002
nRows=4
nColumns=164

# SIMM Motion File Header:
name Run_20002
datacolumns 164
datarows 4
otherdata 1
range 4.02000000 4.05000000
endheader
time	pelvis_tilt	pelvis_list	pelvis_rotation	pelvis_tx	pelvis_ty	pelvis_tz	hip_flexion_r	hip_adduction_r	hip_rotation_r	knee_angle_r	ankle_angle_r	hip_flexion_l	hip_adduction_l	hip_rotation_l	knee_angle_l	ankle_angle_l	lumbar_extension	lumbar_bending	lumbar_rotation	arm_flex_r	arm_add_r	arm_rot_r	elbow_flex_r	pro_sup_r	arm_flex_l	arm_add_l	arm_rot_l	elbow_flex_l	pro_sup_l	subtalar_angle_r	mtp_angle_r	subtalar_angle_l	mtp_angle_l	wrist_flex_r	wrist_dev_r	wrist_flex_l	wrist_dev_l	LASI_tx	LASI_ty	LASI_tz	RASI_tx	RASI_ty	RASI_tz	LPSI_tx	LPSI_ty	LPSI_tz	RPSI_tx	RPSI_ty	RPSI_tz	RTH1_tx	RTH1_ty	RTH1_tz	RTH2_tx	RTH2_ty	RTH2_tz	RTH3_tx	RTH3_ty	RTH3_tz	LTH1_tx	LTH1_ty	LTH1_tz	LTH2_tx	LTH2_ty	LTH2_tz	LTH3_tx	LTH3_ty	LTH3_tz	RTB1_tx	RTB1_ty	RTB1_tz	RTB2_tx	RTB2_ty	RTB2_tz	RTB3_tx	RTB3_ty	RTB3_tz	LTB1_tx	LTB1_ty	LTB1_tz	LTB2_tx	LTB2_ty	LTB2_tz	LTB3_tx	LTB3_ty	LTB3_tz	RCAL_tx	RCAL_ty	RCAL_tz	RTOE_tx	RTOE_ty	RTOE_tz	RMT5_tx	RMT5_ty	RMT5_tz	LCAL_tx	LCAL_ty	LCAL_tz	LTOE_tx	LTOE_ty	LTOE_tz	LMT5_tx	LMT5_ty	LMT5_tz	LACR_tx	LACR_ty	LACR_tz	RACR_tx	RACR_ty	RACR_tz	CLAV_tx	CLAV_ty	CLAV_tz	C7_tx	C7_ty	C7_tz	RUA1_tx	RUA1_ty	RUA1_tz	RUA2_tx	RUA2_ty	RUA2_tz	RUA3_tx	RUA3_ty	RUA3_tz	RLEL_tx	RLEL_ty	RLEL_tz	RMEL_tx	RMEL_ty	RMEL_tz	LUA1_tx	LUA1_ty	LUA1_tz	LUA2_tx	LUA2_ty	LUA2_tz	LUA3_tx	LUA3_ty	LUA3_tz	LLEL_tx	LLEL_ty	LLEL_tz	LMEL_tx	LMEL_ty	LMEL_tz	RFAsuperior_tx	RFAsuperior_ty	RFAsuperior_tz	RFAradius_tx	RFAradius_ty	RFAradius_tz	RFAulna_tx	RFAulna_ty	RFAulna_tz	LFAsuperior_tx	LFAsuperior_ty	LFAsuperior_tz	LFAradius_tx	LFAradius_ty	LFAradius_tz	LFAulna_tx	LFAulna_ty	LFAulna_tz
      4.02000000	      1.92258951	      4.03959940	     -2.40874421	      0.72365389	      0.99465675	     -0.30970288	     -3.31533288	     -2.54528643	      2.50165302	    -60.01431766	    -11.92797407	     19.20398969	      9.55018922	      3.30334746	    -28.44626942	      8.35407174	    -15.00579198	     -8.65311962	      5.15185094	    -12.87902820	    -24.22074714	     -9.68545925	    102.02924042	     73.47457863	    -29.28980669	    -20.30262447	     -7.82857379	     99.20835339	     92.22970627	      0.00000000	      0.00000000	      0.00000000	      0.00000000	      0.00000000	      0.00000000	      0.00000000	      0.00000000	      0.73358442	      1.02218973	     -0.44103404	      0.72515493	      1.00859004	     -0.17782476	      0.55569988	      1.03071009	     -0.36989031	      0.55625298	      1.03421263	     -0.26775678	      0.61981179	      0.81186363	     -0.13902589	      0.68747815	      0.70379780	     -0.15886230	      0.60749278	      0.59262872	     -0.17974437	      0.69843802	      0.82688321	     -0.48903144	      0.80093395	      0.72023999	     -0.46179150	      0.77995443	      0.59516214	     -0.43986378	      0.54765075	      0.37114885	     -0.23828841	      0.48094145	      0.36853839	     -0.17470142	      0.39504702	      0.30080203	     -0.23631583	      0.83211840	      0.36732803	     -0.35399342	      0.78126011	      0.28617197	     -0.41865750	      0.80014630	      0.21505439	     -0.34621240	      0.23824205	      0.34082659	     -0.24528618	      0.29022411	      0.11912186	     -0.25364571	      0.24641816	      0.15745068	     -0.17203857	      0.66879806	      0.09483099	     -0.33764776	      0.89790641	      0.07230846	     -0.31867112	      0.84811311	      0.05699363	     -0.41160615	      0.71439422	      1.47265862	     -0.50230336	      0.73324075	      1.50007922	     -0.17473454	      0.77215897	      1.42398511	     -0.30848536	      0.65737881	      1.50799393	     -0.33358522	      0.68982969	      1.43233929	     -0.08242757	      0.61960179	      1.36250904	     -0.08598336	      0.65891012	      1.31557696	     -0.03696506	      0.62925730	      1.21886094	      0.00897766	      0.59867198	      1.19598615	     -0.06427688	      0.63827498	      1.41270024	     -0.57677368	      0.57047933	      1.35604771	     -0.53136826	      0.54156216	      1.30165424	     -0.58923834	      0.50704190	      1.22493740	     -0.61703842	      0.49431584	      1.21866327	     -0.54131426	      0.73349439	      1.19134763	     -0.00085162	      0.87290851	      1.15581493	     -0.06472497	      0.84914975	      1.09255269	     -0.03922938	      0.59858474	      1.16002475	     -0.61859286	      0.72833448	      1.07810264	     -0.55217931	      0.68781462	      1.02681163	     -0.58144741
      4.03000000	      2.01879520	      4.80924847	     -2.10521154	      0.72188402	      0.98859181	     -0.31118498	     -1.05096191	     -3.35603953	      2.26505426	    -64.37729912	     -9.82043361	     19.89865581	     10.65027837	      2.91460805	    -32.12491545	     10.89230400	    -15.32155873	     -9.54653937	      4.07395394	    -12.73599107	    -23.74067570	     -9.35863584	    100.59325578	     73.67323744	    -26.79588412	    -20.89792905	     -6.80928899	     97.99395547	     92.23246529	      0.00000000	      0.00000000	      0.00000000	      0.00000000	      0.00000000	      0.00000000	      0.00000000	      0.00000000	      0.73176931	      1.01626026	     -0.44257239	      0.72440322	      1.00091346	     -0.17874442	      0.55379742	      1.02487874	     -0.37027317	      0.55534200	      1.02614262	     -0.26837831	      0.62409461	      0.80337664	     -0.13852079	      0.69315862	      0.69850129	     -0.15858845	      0.61820267	      0.58316587	     -0.18185072	      0.69731286	      0.82424444	     -0.49041649	      0.79904996	      0.71586757	     -0.46371340	      0.78172403	      0.59300919	     -0.44173327	      0.56086546	      0.36837609	     -0.23962223	      0.49377535	      0.36643969	     -0.17519605	      0.40617512	      0.30265443	     -0.23720202	      0.82629269	      0.36527088	     -0.35343833	      0.77346583	      0.28643891	     -0.41948097	      0.78723906	      0.21412530	     -0.34654910	      0.24922583	      0.34653319	     -0.24533360	      0.29959320	      0.12426694	     -0.25210854	      0.25819789	      0.16433723	     -0.17186697	      0.64958632	      0.09557902	     -0.33806453	      0.87910914	      0.07197953	     -0.31913934	      0.82864093	      0.05677617	     -0.41198929	      0.71525623	      1.46532303	     -0.50461595	      0.73120301	      1.49497148	     -0.17449185	      0.77247478	      1.41785031	     -0.30872106	      0.65765747	      1.50278957	     -0.33584230	      0.68660197	      1.42597195	     -0.08310524	      0.61623794	      1.35519187	     -0.08786774	      0.65582487	      1.30827325	     -0.03856282	      0.62446701	      1.21213820	      0.00666004	      0.59458910	      1.18954972	     -0.06660838	      0.64220602	      1.39957811	     -0.58011826	      0.57386036	      1.34213743	     -0.53711416	      0.54884632	      1.28625828	     -0.59449751	      0.51707146	      1.20911732	     -0.62141111	      0.50203263	      1.20277776	     -0.54609807	      0.72836710	      1.18240614	     -0.00109719	      0.86799276	      1.14387088	     -0.06315095	      0.84231604	      1.08135683	     -0.03772146	      0.60991058	      1.14609640	     -0.62117943	      0.73985825	      1.06752327	     -0.55176214	      0.70115370	      1.01538192	     -0.58198046
      4.04000000	      2.14129159	      5.52889158	     -1.93029383	      0.71994984	      0.98329815	     -0.31221477	      1.27943058	     -4.11831268	      2.24245729	    -68.36786658	     -7.90576624	     20.13423075	     11.60536429	      2.52919297	    -35.05233294	     12.93817523	    -15.66573323	    -10.45100309	      3.14128329	    -12.68140931	    -23.14029679	     -9.09259892	     98.90824709	     73.91482757	    -23.97710917	    -21.47164060	     -5.62010743	     96.43767409	     92.28891024	      0.00000000	      0.00000000	      0.00000000	      0.00000000	      0.00000000	      0.00000000	      0.00000000	      0.00000000	      0.72961423	      1.01165010	     -0.44476759	      0.72288440	      0.99363420	     -0.17871053	      0.55216417	      1.02076492	     -0.37104692	      0.55366357	      1.01845103	     -0.26804490	      0.62841947	      0.79685605	     -0.13818375	      0.69911881	      0.69438526	     -0.15806998	      0.62882797	      0.57603861	     -0.18428010	      0.69510898	      0.82075657	     -0.49106039	      0.79749828	      0.71278475	     -0.46480789	      0.78206669	      0.59043887	     -0.44341552	      0.57550066	      0.36625786	     -0.24062223	      0.50831469	      0.36481323	     -0.17555966	      0.41931151	      0.30407345	     -0.23783224	      0.81854889	      0.36223312	     -0.35393246	      0.76246986	      0.28578027	     -0.42030725	      0.77286350	      0.21231426	     -0.34716490	      0.26182397	      0.35070078	     -0.24560170	      0.31178857	      0.12815900	     -0.25059721	      0.27280109	      0.16982970	     -0.17125212	      0.62992768	      0.09610317	     -0.33851521	      0.85972285	      0.07120796	     -0.31976280	      0.80871529	      0.05587047	     -0.41230829	      0.71545508	      1.45897904	     -0.50671893	      0.72906166	      1.49065596	     -0.17433518	      0.77247812	      1.41271352	     -0.30865486	      0.65832897	      1.49873209	     -0.33764804	      0.68326818	      1.42060697	     -0.08391534	      0.61274158	      1.34885007	     -0.09041858	      0.65203224	      1.30228307	     -0.04035654	      0.61917301	      1.20608431	      0.00379423	      0.59004094	      1.18382848	     -0.06937486	      0.64651453	      1.38656231	     -0.58317394	      0.57758316	      1.32802462	     -0.54289702	      0.55712876	      1.27080042	     -0.59956830	      0.52832616	      1.19314819	     -0.62534101	      0.51098976	      1.18671962	     -0.55045390	      0.72246848	      1.17358865	     -0.00155582	      0.86227955	      1.13147838	     -0.06135047	      0.83427527	      1.06986430	     -0.03603021	      0.62250269	      1.13227150	     -0.62312061	      0.75226876	      1.05679174	     -0.55087674	      0.71534600	      1.00396039	     -0.58211213
      4.05000000	      2.22352555	      6.17800052	     -1.83370560	      0.71790073	      0.97880655	     -0.31267110	      3.70914336	     -4.81173137	      2.32045764	    -71.91132450	     -6.09122956	     19.84154774	     12.38483909	      2.16915286	    -36.92284865	     14.75327857	    -15.98468770	    -11.35401278	      2.28876899	    -12.71115839	    -22.40295036	     -8.82378505	     97.03667903	     74.17868116	    -20.92053765	    -22.02956544	     -4.32249038	     94.66931514	     92.41477289	      0.00000000	      0.00000000	      0.00000000	      0.00000000	      0.00000000	      0.00000000	      0.00000000	      0.00000000	      0.72750687	      1.00816345	     -0.44690210	      0.72098436	      0.98722934	     -0.17779268	      0.55055532	      1.01788820	     -0.37171211	      0.55160239	      1.01167586	     -0.26681624	      0.63208680	      0.79204712	     -0.13839697	      0.70543469	      0.69113277	     -0.15731731	      0.63933842	      0.57160223	     -0.18635748	      0.69148241	      0.81667233	     -0.49115451	      0.79503737	      0.70992625	     -0.46534133	      0.77796475	      0.58623352	     -0.44407347	      0.59135064	      0.36456175	     -0.24100312	      0.52421899	      0.36373526	     -0.17557712	      0.43412016	      0.30504436	     -0.23817951	      0.80919704	      0.35759250	     -0.35536177	      0.74873482	      0.28336161	     -0.42086664	      0.75734029	      0.20921499	     -0.34784804	      0.27545310	      0.35309781	     -0.24650960	      0.32688610	      0.13081911	     -0.24896526	      0.28957429	      0.17379071	     -0.16978986	      0.61005238	      0.09644728	     -0.33889009	      0.83999898	      0.07030909	     -0.32049671	      0.78855915	      0.05513323	     -0.41279544	      0.71532818	      1.45345960	     -0.50835386	      0.72718348	      1.48696938	     -0.17447333	      0.77212583	      1.40843480	     -0.30851333	      0.65886199	      1.49536571	     -0.33890824	      0.67988366	      1.41635038	     -0.08498342	      0.60936121	      1.34391270	     -0.09367925	      0.64750373	      1.29788029	     -0.04234206	      0.61351775	      1.20107358	      0.00045548	      0.58511477	      1.17920935	     -0.07263082	      0.65112740	      1.37472967	     -0.58543195	      0.58192334	      1.31446945	     -0.54839924	      0.56653415	      1.25598352	     -0.60412944	      0.54097613	      1.17750490	     -0.62878893	      0.52135244	      1.17099126	     -0.55432241	      0.71593452	      1.16539046	     -0.00257965	      0.85568824	      1.11890429	     -0.05951047	      0.82500822	      1.05837531	     -0.03439297	      0.63654374	      1.11927486	     -0.62411611	      0.76571265	      1.04644632	     -0.54940312	      0.73053505	      0.99307543	     -0.58177773
